<?xml version="1.0" standalone="no"?>
<!DOCTYPE svg PUBLIC "-//W3C//DTD SVG 20010904//EN"
 "http://www.w3.org/TR/2001/REC-SVG-20010904/DTD/svg10.dtd">
<svg version="1.0" xmlns="http://www.w3.org/2000/svg"
 width="200.000000pt" height="200.000000pt" viewBox="0 0 200.000000 200.000000"
 preserveAspectRatio="xMidYMid meet">

<g transform="translate(0.000000,200.000000) scale(0.100000,-0.100000)"
fill="#000000" stroke="none">
<path d="M450 1860 l0 -60 550 0 550 0 0 60 0 60 -550 0 -550 0 0 -60z"/>
<path d="M811 1258 c-29 -139 -55 -263 -58 -276 -5 -22 -4 -23 53 -20 l59 3
20 100 c19 92 23 100 46 103 23 3 27 -5 63 -103 l39 -105 58 0 c33 0 59 4 59
9 0 5 -20 58 -45 117 -33 79 -42 110 -33 113 7 2 32 23 55 45 61 62 70 149 21
211 -33 42 -76 55 -186 55 l-98 0 -53 -252z m227 146 c39 -27 28 -95 -19 -119
-27 -14 -89 -21 -89 -9 0 3 7 36 16 75 15 64 17 69 43 69 14 0 37 -7 49 -16z"/>
<path d="M807 537 c-4 -95 -7 -217 -7 -272 l1 -100 37 40 c20 22 64 71 98 108
l61 68 94 -112 94 -113 5 269 c3 149 5 271 5 271 0 1 -86 4 -191 7 l-191 6 -6
-172z"/>
</g>
</svg>
